<svg width="57" height="57" viewBox="0 0 57 57" fill="none" xmlns="http://www.w3.org/2000/svg">
<circle cx="28.5" cy="28.5" r="28.5" fill="#FFF6F3"/>
<path d="M14 22C14 22 14 18.5 17.5 18.5H38.5C38.5 18.5 42 18.5 42 22V32.5C42 32.5 42 36 38.5 36H31.5C31.5 37.1672 31.6453 38.0422 31.9375 38.625H33.25C33.4821 38.625 33.7046 38.7172 33.8687 38.8813C34.0328 39.0454 34.125 39.2679 34.125 39.5C34.125 39.7321 34.0328 39.9546 33.8687 40.1187C33.7046 40.2828 33.4821 40.375 33.25 40.375H22.75C22.5179 40.375 22.2954 40.2828 22.1313 40.1187C21.9672 39.9546 21.875 39.7321 21.875 39.5C21.875 39.2679 21.9672 39.0454 22.1313 38.8813C22.2954 38.7172 22.5179 38.625 22.75 38.625H24.0625C24.3547 38.0422 24.5 37.1672 24.5 36H17.5C17.5 36 14 36 14 32.5V22ZM16.4465 20.5037C16.2543 20.6376 16.1009 20.8199 16.002 21.0323C15.8528 21.3405 15.7671 21.6755 15.75 22.0175V32.5C15.75 33.0687 15.8865 33.3785 16.0037 33.5535C16.1262 33.7373 16.3013 33.8825 16.5323 33.998C16.8272 34.1409 17.1468 34.2258 17.4738 34.2482L17.5175 34.25H38.5C39.0687 34.25 39.3785 34.1135 39.5535 33.9962C39.7457 33.8624 39.8991 33.6801 39.998 33.4678C40.1409 33.1728 40.2258 32.8532 40.2482 32.5263L40.25 32.4825V22C40.25 21.4313 40.1135 21.1215 39.9962 20.9465C39.8625 20.7542 39.6801 20.6008 39.4678 20.502C39.1595 20.3528 38.8245 20.2671 38.4825 20.25H17.5C16.9313 20.25 16.6215 20.3865 16.4465 20.5037V20.5037Z" fill="black"/>
</svg>
