<svg width="57" height="57" viewBox="0 0 57 57" fill="none" xmlns="http://www.w3.org/2000/svg">
<circle cx="28.5" cy="28.5" r="28.5" fill="#EEF5FF"/>
<g clip-path="url(#clip0)">
<path d="M38.5 32.5C38.9641 32.5 39.4092 32.6844 39.7374 33.0126C40.0656 33.3408 40.25 33.7859 40.25 34.25V36C40.25 36.4641 40.0656 36.9092 39.7374 37.2374C39.4092 37.5656 38.9641 37.75 38.5 37.75H17.5C17.0359 37.75 16.5908 37.5656 16.2626 37.2374C15.9344 36.9092 15.75 36.4641 15.75 36V34.25C15.75 33.7859 15.9344 33.3408 16.2626 33.0126C16.5908 32.6844 17.0359 32.5 17.5 32.5H38.5ZM17.5 30.75C16.5717 30.75 15.6815 31.1187 15.0251 31.7751C14.3687 32.4315 14 33.3217 14 34.25V36C14 36.9283 14.3687 37.8185 15.0251 38.4749C15.6815 39.1313 16.5717 39.5 17.5 39.5H38.5C39.4283 39.5 40.3185 39.1313 40.9749 38.4749C41.6313 37.8185 42 36.9283 42 36V34.25C42 33.3217 41.6313 32.4315 40.9749 31.7751C40.3185 31.1187 39.4283 30.75 38.5 30.75H17.5Z" fill="black"/>
<path d="M22.75 35.125C22.75 35.3571 22.6578 35.5796 22.4937 35.7437C22.3296 35.9078 22.1071 36 21.875 36C21.6429 36 21.4204 35.9078 21.2563 35.7437C21.0922 35.5796 21 35.3571 21 35.125C21 34.8929 21.0922 34.6704 21.2563 34.5063C21.4204 34.3422 21.6429 34.25 21.875 34.25C22.1071 34.25 22.3296 34.3422 22.4937 34.5063C22.6578 34.6704 22.75 34.8929 22.75 35.125ZM19.25 35.125C19.25 35.3571 19.1578 35.5796 18.9937 35.7437C18.8296 35.9078 18.6071 36 18.375 36C18.1429 36 17.9204 35.9078 17.7563 35.7437C17.5922 35.5796 17.5 35.3571 17.5 35.125C17.5 34.8929 17.5922 34.6704 17.7563 34.5063C17.9204 34.3422 18.1429 34.25 18.375 34.25C18.6071 34.25 18.8296 34.3422 18.9937 34.5063C19.1578 34.6704 19.25 34.8929 19.25 35.125V35.125ZM38.5 20.25C38.9641 20.25 39.4092 20.4344 39.7374 20.7626C40.0656 21.0908 40.25 21.5359 40.25 22V23.75C40.25 24.2141 40.0656 24.6592 39.7374 24.9874C39.4092 25.3156 38.9641 25.5 38.5 25.5H17.5C17.0359 25.5 16.5908 25.3156 16.2626 24.9874C15.9344 24.6592 15.75 24.2141 15.75 23.75V22C15.75 21.5359 15.9344 21.0908 16.2626 20.7626C16.5908 20.4344 17.0359 20.25 17.5 20.25H38.5ZM17.5 18.5C16.5717 18.5 15.6815 18.8687 15.0251 19.5251C14.3687 20.1815 14 21.0717 14 22V23.75C14 24.6783 14.3687 25.5685 15.0251 26.2249C15.6815 26.8813 16.5717 27.25 17.5 27.25H38.5C39.4283 27.25 40.3185 26.8813 40.9749 26.2249C41.6313 25.5685 42 24.6783 42 23.75V22C42 21.0717 41.6313 20.1815 40.9749 19.5251C40.3185 18.8687 39.4283 18.5 38.5 18.5H17.5Z" fill="black"/>
<path d="M22.75 22.875C22.75 23.1071 22.6578 23.3296 22.4937 23.4937C22.3296 23.6578 22.1071 23.75 21.875 23.75C21.6429 23.75 21.4204 23.6578 21.2563 23.4937C21.0922 23.3296 21 23.1071 21 22.875C21 22.6429 21.0922 22.4204 21.2563 22.2563C21.4204 22.0922 21.6429 22 21.875 22C22.1071 22 22.3296 22.0922 22.4937 22.2563C22.6578 22.4204 22.75 22.6429 22.75 22.875V22.875ZM19.25 22.875C19.25 23.1071 19.1578 23.3296 18.9937 23.4937C18.8296 23.6578 18.6071 23.75 18.375 23.75C18.1429 23.75 17.9204 23.6578 17.7563 23.4937C17.5922 23.3296 17.5 23.1071 17.5 22.875C17.5 22.6429 17.5922 22.4204 17.7563 22.2563C17.9204 22.0922 18.1429 22 18.375 22C18.6071 22 18.8296 22.0922 18.9937 22.2563C19.1578 22.4204 19.25 22.6429 19.25 22.875V22.875Z" fill="black"/>
</g>
<defs>
<clipPath id="clip0">
<rect width="28" height="28" fill="white" transform="translate(14 15)"/>
</clipPath>
</defs>
</svg>
