<svg width="57" height="57" viewBox="0 0 57 57" fill="none" xmlns="http://www.w3.org/2000/svg">
<circle cx="28.5" cy="28.5" r="28.5" fill="#E8FAEE"/>
<path d="M21.875 34.25C22.1071 34.25 22.3296 34.1578 22.4937 33.9937C22.6578 33.8296 22.75 33.6071 22.75 33.375C22.75 33.1429 22.6578 32.9204 22.4937 32.7563C22.3296 32.5922 22.1071 32.5 21.875 32.5C21.6429 32.5 21.4204 32.5922 21.2563 32.7563C21.0922 32.9204 21 33.1429 21 33.375C21 33.6071 21.0922 33.8296 21.2563 33.9937C21.4204 34.1578 21.6429 34.25 21.875 34.25V34.25ZM19.25 33.375C19.25 33.6071 19.1578 33.8296 18.9937 33.9937C18.8296 34.1578 18.6071 34.25 18.375 34.25C18.1429 34.25 17.9204 34.1578 17.7563 33.9937C17.5922 33.8296 17.5 33.6071 17.5 33.375C17.5 33.1429 17.5922 32.9204 17.7563 32.7563C17.9204 32.5922 18.1429 32.5 18.375 32.5C18.6071 32.5 18.8296 32.5922 18.9937 32.7563C19.1578 32.9204 19.25 33.1429 19.25 33.375V33.375Z" fill="black"/>
<path d="M42 34.25C42 35.1783 41.6313 36.0685 40.9749 36.7249C40.3185 37.3813 39.4283 37.75 38.5 37.75H17.5C16.5717 37.75 15.6815 37.3813 15.0251 36.7249C14.3687 36.0685 14 35.1783 14 34.25V31.6425C14 30.911 14.1838 30.19 14.5338 29.5477L18.8597 21.6185C19.0855 21.2044 19.4187 20.8587 19.8243 20.6179C20.2299 20.3771 20.6928 20.25 21.1645 20.25H34.8355C35.3072 20.25 35.7701 20.3771 36.1757 20.6179C36.5813 20.8587 36.9145 21.2044 37.1402 21.6185L41.4662 29.546C41.8162 30.19 42 30.911 42 31.6425V34.25ZM20.3962 22.455L16.786 29.0753C17.017 29.0245 17.255 29 17.5 29H38.5C38.745 29 38.983 29.0245 39.214 29.0735L35.6038 22.455C35.5283 22.3172 35.4172 22.2022 35.282 22.1221C35.1469 22.0421 34.9926 21.9999 34.8355 22H21.1645C21.0071 21.9996 20.8525 22.0416 20.717 22.1217C20.5815 22.2018 20.4701 22.3169 20.3945 22.455H20.3962ZM15.75 32.5V34.25C15.75 34.7141 15.9344 35.1592 16.2626 35.4874C16.5908 35.8156 17.0359 36 17.5 36H38.5C38.9641 36 39.4092 35.8156 39.7374 35.4874C40.0656 35.1592 40.25 34.7141 40.25 34.25V32.5C40.25 32.0359 40.0656 31.5908 39.7374 31.2626C39.4092 30.9344 38.9641 30.75 38.5 30.75H17.5C17.0359 30.75 16.5908 30.9344 16.2626 31.2626C15.9344 31.5908 15.75 32.0359 15.75 32.5V32.5Z" fill="black"/>
</svg>
