<svg width="27" height="27" viewBox="0 0 27 27" fill="none" xmlns="http://www.w3.org/2000/svg">
<path d="M22.4648 26.1553H4.53516C3.1976 26.1553 2.10938 25.0672 2.10938 23.7296V10.9668C2.10938 10.5008 2.37609 10.6579 2.84211 10.6579C3.30812 10.6579 3.79687 10.5008 3.79687 10.9668V23.7296C3.79687 24.1367 4.12805 24.4679 4.53516 24.4679H22.4648C22.872 24.4679 23.2031 24.1367 23.2031 23.7296V10.9668C23.2031 10.5008 23.5809 10.123 24.0469 10.123C24.5129 10.123 24.8906 10.5008 24.8906 10.9668V23.7296C24.8906 25.0671 23.8025 26.1553 22.4648 26.1553Z" fill="black"/>
<path d="M24.5177 11.6445C24.2029 11.8923 23.7526 11.8657 23.4693 11.5824L15.066 3.17906C14.2024 2.31548 12.7973 2.31548 11.9338 3.17906L2.91528 12.0071C2.86822 12.0532 2.805 12.079 2.73916 12.079V12.079C2.51486 12.079 2.42938 11.7935 2.44646 11.5698C2.44983 11.5258 2.44074 11.4856 2.41381 11.453C2.30723 11.3237 2.13135 11.2326 2.13135 11.0651V10.8653C2.13135 10.7325 2.18386 10.605 2.27743 10.5108L10.7405 1.98578C12.262 0.464293 14.7378 0.464293 16.2592 1.98578L24.5203 10.2469C24.6747 10.4013 24.7731 10.6028 24.8 10.8194L24.8132 10.9257C24.8473 11.2005 24.7352 11.4732 24.5177 11.6445V11.6445Z" fill="black"/>
<path d="M16.875 26.1554H10.125C9.65899 26.1554 9.28125 25.7776 9.28125 25.3116V17.8234C9.28125 16.3695 10.4641 15.1866 11.918 15.1866H15.082C16.5359 15.1866 17.7187 16.3695 17.7187 17.8234V25.3116C17.7187 25.7776 17.341 26.1554 16.875 26.1554ZM10.9687 24.4679H16.0312V17.8234C16.0312 17.3 15.6054 16.8741 15.082 16.8741H11.918C11.3946 16.8741 10.9687 17.3 10.9687 17.8234V24.4679Z" fill="black"/>
</svg>
